<svg xmlns="http://www.w3.org/2000/svg" xmlns:xlink="http://www.w3.org/1999/xlink" width="19" height="23" viewBox="0 0 19 23"><defs><path id="f65fa" d="M1536.59 86.97c0 .38-.3.68-.68.68h-14.88a.67.67 0 0 1-.68-.68V72.1c0-.38.3-.68.68-.68h14.88c.38 0 .68.3.68.68zm-15.56-16.91c-1.12 0-2.03.9-2.03 2.03v14.88c0 1.12.9 2.03 2.03 2.03h14.88c1.12 0 2.03-.9 2.03-2.03V72.1c0-1.12-.9-2.03-2.03-2.03z"/><path id="f65fb" d="M1524.82 70.06h7.3c-.36-1.7-2.05-2.7-3.65-2.7s-3.29 1-3.65 2.7zm8.72 1.35h-10.14v-.67c0-2.93 2.64-4.74 5.07-4.74 2.44 0 5.07 1.81 5.07 4.74z"/></defs><g><g transform="translate(-1519 -66)"><g><g><use fill="#fff" xlink:href="#f65fa"/></g></g><g><g><use fill="#fff" xlink:href="#f65fb"/></g></g></g></g></svg>