<svg xmlns="http://www.w3.org/2000/svg" xmlns:xlink="http://www.w3.org/1999/xlink" width="18" height="17" viewBox="0 0 18 17"><defs><path id="gtoca" d="M1442.64 4599h-14.98a.93.93 0 0 0-.93.93v14.98c0 .51.41.93.93.93h8.06v-6.52h-2.2v-2.54h2.2v-1.88c0-2.17 1.33-3.36 3.27-3.36.93 0 1.73.07 1.96.1v2.28h-1.35c-1.05 0-1.25.5-1.25 1.24v1.62h2.51l-.33 2.55h-2.18v6.5h4.29c.51 0 .93-.4.93-.92v-14.98a.93.93 0 0 0-.93-.93"/></defs><g><g transform="translate(-1426 -4599)"><use fill="#fff" xlink:href="#gtoca"/></g></g></svg>