<svg xmlns="http://www.w3.org/2000/svg" xmlns:xlink="http://www.w3.org/1999/xlink" width="21" height="21" viewBox="0 0 21 21"><defs><path id="t0u0a" d="M1542.27 4600.51a1.22 1.22 0 1 0 0 2.43 1.22 1.22 0 0 0 0-2.43zm-5.4 10a3.38 3.38 0 1 1 0-6.75 3.38 3.38 0 0 1 0 6.75zm0-8.58a5.2 5.2 0 1 0 0 10.4 5.2 5.2 0 0 0 0-10.4zm0-3.1c2.7 0 3.02 0 4.09.05.99.05 1.52.21 1.88.35.48.19.81.4 1.17.76.35.36.57.7.76 1.17.13.35.3.9.34 1.88a71 71 0 0 1 .06 4.1c0 2.7 0 3.02-.06 4.1a5.7 5.7 0 0 1-.35 1.87c-.2.48-.4.81-.76 1.17-.36.35-.7.57-1.17.76-.35.14-.9.3-1.89.35-1.07.04-1.39.05-4.1.05s-3.03 0-4.1-.06a5.75 5.75 0 0 1-1.9-.35c-.47-.2-.8-.4-1.16-.76-.35-.36-.58-.7-.76-1.17-.14-.35-.3-.9-.35-1.89-.04-1.06-.06-1.39-.06-4.09s.02-3.03.06-4.1c.05-1 .21-1.54.35-1.89a3 3 0 0 1 .76-1.17 3 3 0 0 1 1.17-.75c.35-.14.88-.31 1.87-.36 1.08-.04 1.4-.05 4.1-.05l.04.02zm0-1.83c-2.76 0-3.1.01-4.18.06a7.47 7.47 0 0 0-2.46.47c-.67.26-1.24.6-1.8 1.17a4.95 4.95 0 0 0-1.17 1.8 7.45 7.45 0 0 0-.47 2.46 70.63 70.63 0 0 0-.06 4.18c0 2.75.01 3.1.06 4.17.05 1.08.22 1.82.47 2.46.26.67.6 1.24 1.17 1.8.56.56 1.13.91 1.8 1.17.64.25 1.38.42 2.46.47 1.08.05 1.42.06 4.17.06 2.76 0 3.1-.01 4.18-.06a7.5 7.5 0 0 0 2.46-.47c.67-.26 1.24-.6 1.8-1.17.56-.56.91-1.13 1.17-1.8.25-.64.42-1.38.47-2.46.05-1.08.06-1.42.06-4.17 0-2.76-.01-3.1-.06-4.18a7.5 7.5 0 0 0-.47-2.46 4.97 4.97 0 0 0-1.17-1.8 4.94 4.94 0 0 0-1.8-1.17 7.46 7.46 0 0 0-2.46-.47 70.63 70.63 0 0 0-4.18-.06z"/></defs><g><g transform="translate(-1526 -4597)"><use fill="#fff" xlink:href="#t0u0a"/></g></g></svg>