<svg xmlns="http://www.w3.org/2000/svg" xmlns:xlink="http://www.w3.org/1999/xlink" width="117" height="27" viewBox="0 0 117 27"><defs><path id="9205a" d="M378 4701.94v-26.9h6.27v26.9z"/><path id="9205b" d="M488.16 4701.95v-26.93h6.27v26.93z"/><path id="9205c" d="M472.38 4701.95v-26.9h6.26v26.9z"/><path id="9205d" d="M464.11 4701.94v-26.9h6.27v26.9z"/><path id="9205e" d="M480.64 4681.27V4675h13.67v6.27z"/><path id="9205f" d="M472.38 4702v-6.27h13.67v6.27z"/><path id="9205g" d="M408.84 4701.94v-26.9h6.26v26.9z"/><path id="9205h" d="M406.84 4701.94h-8.18l-19.2-22.88 4.81-4.03z"/><path id="9205i" d="M432.25 4701.94h-8.14l-15.01-17.84 4.8-4.03z"/><path id="9205j" d="M438.92 4697.09l-4.05 4.85-15.46-18.36 4.2-4.76z"/><path id="9205k" d="M451.84 4696.77l-4.23 5.08-8.24-9.79 4.8-4.03z"/><path id="9205l" d="M426.57 4675.04h8.1l-10.46 12.57-4.8-4.03z"/><path id="9205m" d="M449.26 4675.03h8.17l-22.56 26.9-3.82-5.2z"/><path id="9205n" d="M462.11 4675.03v9.4l-14.57 17.5-4.07-5z"/><path id="9205o" d="M406.84 4681.3h-14.7l-5.28-6.27h19.98z"/><path id="9205p" d="M406.84 4689.85h-7.54l-5.28-6.27h12.82z"/><path id="9205q" d="M467.77 4689.85h-7.57l-5.22 6.26h12.79z"/></defs><g><g transform="translate(-378 -4675)"><use fill="#fff" xlink:href="#9205a"/></g><g transform="translate(-378 -4675)"><use fill="#fff" xlink:href="#9205b"/></g><g transform="translate(-378 -4675)"><use fill="#fff" xlink:href="#9205c"/></g><g transform="translate(-378 -4675)"><use fill="#fff" xlink:href="#9205d"/></g><g transform="translate(-378 -4675)"><use fill="#fff" xlink:href="#9205e"/></g><g transform="translate(-378 -4675)"><use fill="#fff" xlink:href="#9205f"/></g><g transform="translate(-378 -4675)"><use fill="#fff" xlink:href="#9205g"/></g><g transform="translate(-378 -4675)"><use fill="#fff" xlink:href="#9205h"/></g><g transform="translate(-378 -4675)"><use fill="#fff" xlink:href="#9205i"/></g><g transform="translate(-378 -4675)"><use fill="#fff" xlink:href="#9205j"/></g><g transform="translate(-378 -4675)"><use fill="#fff" xlink:href="#9205k"/></g><g transform="translate(-378 -4675)"><use fill="#fff" xlink:href="#9205l"/></g><g transform="translate(-378 -4675)"><use fill="#fff" xlink:href="#9205m"/></g><g transform="translate(-378 -4675)"><use fill="#fff" xlink:href="#9205n"/></g><g transform="translate(-378 -4675)"><use fill="#fff" xlink:href="#9205o"/></g><g transform="translate(-378 -4675)"><use fill="#fff" xlink:href="#9205p"/></g><g transform="translate(-378 -4675)"><use fill="#fff" xlink:href="#9205q"/></g></g></svg>