<svg xmlns="http://www.w3.org/2000/svg" xmlns:xlink="http://www.w3.org/1999/xlink" width="46" height="42" viewBox="0 0 46 42"><defs><path id="no4wa" d="M419.32 197.57a3.07 3.07 0 0 1-3.06 3.05h-25.98a3.07 3.07 0 0 1-3.05-3.05v-10.7a3.07 3.07 0 0 1 3.05-3.06h25.98a3.07 3.07 0 0 1 3.06 3.06zm-16.81 7.64c0 .76-.61 1.53-1.53 1.53h-22.92c-.77 0-1.53-.61-1.53-1.53v-35.15c0-.77.61-1.53 1.53-1.53h15.28v7.64a3.07 3.07 0 0 0 3.06 3.06h6.11v3.05h-12.23a4.5 4.5 0 0 0-4.58 4.59v10.7a4.5 4.5 0 0 0 4.58 4.58h12.23zm-7.64-35.92l7.18 8.4h-5.65c-.77 0-1.53-.76-1.53-1.52zm21.4 13h-12.23v-4.6L394.87 167h-16.81a3.07 3.07 0 0 0-3.06 3.06v35.15a3.07 3.07 0 0 0 3.06 3.05h22.92a3.07 3.07 0 0 0 3.06-3.05v-3.06h12.22a4.5 4.5 0 0 0 4.59-4.58v-10.7a4.5 4.5 0 0 0-4.59-4.59z"/><path id="no4wb" d="M410.15 191.45v-3.05h6.11v-1.53h-7.64v10.7h1.53v-4.59h4.59v-1.53z"/><path id="no4wc" d="M394.87 191.45h-3.06v-3.05h3.06c.92 0 1.53.6 1.53 1.52s-.61 1.53-1.53 1.53zm0-4.58h-4.59v10.7h1.53v-4.59h3.06a3.07 3.07 0 0 0 3.05-3.06 3.07 3.07 0 0 0-3.05-3.05z"/><path id="no4wd" d="M405.57 194.51c0 .92-.61 1.53-1.53 1.53h-3.06v-7.64h3.06c.92 0 1.53.6 1.53 1.52zm-1.53-7.64h-4.59v10.7h4.59a3.07 3.07 0 0 0 3.05-3.06v-4.59a3.07 3.07 0 0 0-3.05-3.05z"/></defs><g><g transform="translate(-375 -167)"><g><use fill="#ff3d00" xlink:href="#no4wa"/></g><g><use fill="#ff3d00" xlink:href="#no4wb"/></g><g><use fill="#ff3d00" xlink:href="#no4wc"/></g><g><use fill="#ff3d00" xlink:href="#no4wd"/></g></g></g></svg>