<svg xmlns="http://www.w3.org/2000/svg" xmlns:xlink="http://www.w3.org/1999/xlink" width="13" height="17" viewBox="0 0 13 17"><defs><path id="4h0na" d="M1227.03 24.03c-.8-.5-1.5-.7-2.3.2-1-.3-1.8-1.9-1.8-1.9s-.8-1.5-.4-2.6c1.2-.1 1.5-.7 1.5-1.7l.2-2.3c.1-.9-.4-1.7-1.3-1.7 0 0-3.4-.6-3.9 3.5-.1 1 0 3.2 1.2 5.9s2.9 3.9 3.8 4.5c3.5 2.2 5.3-.5 5.3-.5.5-.8.3-1.6-.5-2.1z"/><path id="4h0nb" d="M1227.33 16.73c2 .6 3.1 2.7 2.5 4.7"/><path id="4h0nc" d="M1228.93 21.33l.4 1.5c0 .1.2.2.3.1l1.1-1.1c.1-.1.1-.3-.1-.3l-1.5-.5c-.1 0-.2.1-.2.3z"/></defs><g><g transform="translate(-1218 -13)"><g><use fill="#fff" fill-opacity="0" stroke="#f2f2f2" stroke-linecap="round" stroke-linejoin="round" stroke-miterlimit="50" stroke-width="1.3" xlink:href="#4h0na"/></g><g><g><use fill="#fff" fill-opacity="0" stroke="#f2f2f2" stroke-linecap="round" stroke-linejoin="round" stroke-miterlimit="50" stroke-width="1.3" xlink:href="#4h0nb"/></g><g><g><use fill="#fff" xlink:href="#4h0nc"/></g></g></g></g></g></svg>