<svg xmlns="http://www.w3.org/2000/svg" xmlns:xlink="http://www.w3.org/1999/xlink" width="24" height="13" viewBox="0 0 24 13"><defs><path id="5ia2a" d="M1333.67 4613.73h1.35s.4-.05.61-.27c.2-.2.2-.59.2-.59s-.03-1.8.8-2.07c.84-.26 1.9 1.74 3.01 2.51.86.6 1.5.47 1.5.47l3-.04s1.58-.1.84-1.34c-.06-.1-.42-.91-2.22-2.58-1.88-1.74-1.63-1.46.63-4.48 1.38-1.84 1.94-2.96 1.76-3.44-.16-.45-1.18-.33-1.18-.33l-3.37.02s-.26-.02-.44.09-.3.36-.3.36-.53 1.44-1.24 2.64c-1.52 2.56-2.12 2.7-2.36 2.53-.57-.37-.42-1.48-.42-2.28 0-2.47.38-3.5-.73-3.77a6.18 6.18 0 0 0-1.58-.16c-1.2-.01-2.22.01-2.8.3-.38.18-.67.6-.5.63.22.02.73.13 1 .5.34.47.33 1.53.33 1.53s.2 2.91-.46 3.27c-.47.25-1.08-.26-2.43-2.57-.69-1.18-1.2-2.5-1.2-2.5s-.1-.24-.29-.38a1.48 1.48 0 0 0-.52-.21l-3.21.03s-.48.01-.65.22c-.15.18-.01.58-.01.58s2.51 5.88 5.36 8.84c2.6 2.71 5.57 2.54 5.57 2.54l-.05-.05z"/></defs><g><g transform="translate(-1322 -4601)"><use fill="#fff" xlink:href="#5ia2a"/></g></g></svg>