<svg xmlns="http://www.w3.org/2000/svg" xmlns:xlink="http://www.w3.org/1999/xlink" width="46" height="41" viewBox="0 0 46 41"><defs><path id="b2usa" d="M418.79 266.2a3.03 3.03 0 0 1-3.02 3.02H390.1a3.03 3.03 0 0 1-3.02-3.02v-10.57a3.03 3.03 0 0 1 3.02-3.02h25.67a3.03 3.03 0 0 1 3.02 3.02zm-16.61 7.55c0 .75-.6 1.5-1.51 1.5h-22.65c-.76 0-1.51-.6-1.51-1.5v-34.73c0-.76.6-1.51 1.51-1.51h15.1v7.55a3.03 3.03 0 0 0 3.02 3.02h6.04v3.02H390.1a4.45 4.45 0 0 0-4.53 4.53v10.57a4.45 4.45 0 0 0 4.53 4.53h12.08zm-7.55-35.49l7.1 8.3h-5.6c-.75 0-1.5-.75-1.5-1.5zm21.14 12.84h-12.08v-4.53L394.63 236h-16.61a3.03 3.03 0 0 0-3.02 3.02v34.73a3.03 3.03 0 0 0 3.02 3.02h22.65a3.03 3.03 0 0 0 3.02-3.02v-3.02h12.08a4.45 4.45 0 0 0 4.52-4.53v-10.57a4.45 4.45 0 0 0-4.52-4.53z"/><path id="b2usb" d="M393.12 260.91l-3.02-5.28h1.5l2.27 3.92 2.27-3.92h1.5l-3.01 5.28 3.02 5.29h-1.51l-2.27-3.93-2.26 3.93h-1.51z"/><path id="b2usc" d="M406.7 264.69v1.5h-7.54v-10.56h1.5v9.06z"/><path id="b2usd" d="M411.24 255.63a3.03 3.03 0 0 0-3.02 3.02 3.03 3.03 0 0 0 3.02 3.02h1.5c.91 0 1.52.6 1.52 1.5 0 .91-.6 1.52-1.51 1.52h-1.51c-.91 0-1.51-.76-1.51-1.51h-1.51a3.03 3.03 0 0 0 3.02 3.02h1.5a3.03 3.03 0 0 0 3.03-3.02 3.03 3.03 0 0 0-3.02-3.02h-1.51c-.91 0-1.51-.6-1.51-1.51 0-.9.6-1.51 1.5-1.51h1.52c.9 0 1.5.75 1.5 1.5h1.52a3.03 3.03 0 0 0-3.02-3.01z"/></defs><g><g transform="translate(-375 -236)"><g><use fill="#ff3d00" xlink:href="#b2usa"/></g><g><use fill="#ff3d00" xlink:href="#b2usb"/></g><g><use fill="#ff3d00" xlink:href="#b2usc"/></g><g><use fill="#ff3d00" xlink:href="#b2usd"/></g></g></g></svg>