<svg xmlns="http://www.w3.org/2000/svg" xmlns:xlink="http://www.w3.org/1999/xlink" width="24" height="16" viewBox="0 0 24 16"><defs><path id="7msla" d="M1482.71 4611.21v-6.73l5.86 3.37zm13-8.79c-.27-.95-1.01-1.69-1.96-1.95-1.75-.47-8.8-.47-8.8-.47s-7.01-.01-8.78.47c-.95.26-1.69 1-1.95 1.95-.33 1.8-.5 3.61-.5 5.43 0 1.82.17 3.63.5 5.41.26.95 1 1.69 1.95 1.95 1.75.47 8.79.47 8.79.47s7.02 0 8.79-.47c.95-.26 1.69-1 1.95-1.95.32-1.78.48-3.6.47-5.4.01-1.83-.14-3.65-.47-5.44z"/></defs><g><g transform="translate(-1473 -4600)"><use fill="#fff" xlink:href="#7msla"/></g></g></svg>